<svg xmlns="http://www.w3.org/2000/svg" width="30" height="43.379" viewBox="0 0 30 43.379"><g stroke-miterlimit="10"><path d="M27.577 2.423c0.853 0.853 2.423 2.423 2.423 19.249s-1.604 18.294 -2.423 19.283a8.464 8.464 0 0 1 -5.904 2.423 8.259 8.259 0 0 1 -5.87 -2.457L2.423 27.577a8.362 8.362 0 0 1 0 -11.775L15.802 2.423A8.191 8.191 0 0 1 21.672 0a8.328 8.328 0 0 1 5.904 2.423" fill="#231f20" opacity=".1"/><path d="m4.898 18.276 13.379 -13.379a4.915 4.915 0 0 1 6.826 0c1.911 1.911 1.911 31.775 0 33.686a4.915 4.915 0 0 1 -6.826 0l-13.379 -13.447a4.881 4.881 0 0 1 -1.433 -3.413c0 -1.294 0.519 -2.532 1.433 -3.447" fill="#fff"/></g></svg>
