<!-- thanks to <https://github.com/CST1229> for the design -->
<svg xmlns="http://www.w3.org/2000/svg" width="30" height="43.379" viewBox="0 0 30 43.379"><g stroke-miterlimit="10"><path d="M8.328 0a8.2 8.2 0 0 1 5.87 2.423l13.379 13.379a8.36 8.36 0 0 1 0 11.775L14.198 40.922a8.26 8.26 0 0 1-5.87 2.457 8.46 8.46 0 0 1-5.905-2.423C1.604 39.966 0 38.498 0 21.672S1.57 3.276 2.423 2.423A8.33 8.33 0 0 1 8.328 0" fill="#231f20" opacity=".1"/><path d="M26.536 21.724a4.88 4.88 0 0 1-1.433 3.413L11.724 38.584a4.915 4.915 0 0 1-6.826 0c-1.911-1.911-1.911-31.775 0-33.686a4.915 4.915 0 0 1 6.826 0l13.379 13.379a4.88 4.88 0 0 1 1.433 3.447" fill="#fff"/></g></svg>
