<svg width="28" height="28" viewBox="0 0 28 28" fill="none" xmlns="http://www.w3.org/2000/svg">
<path d="M21.7949 3.87891V7.12991M20.1699 5.50491H23.4209" stroke="white" stroke-width="1.07124" stroke-linecap="round"/>
<path d="M6.4556 12.6441L10.9997 12.3223L18.5 13.5L17.5 18.154L16.4544 24.9433L13.4435 25.1602L8.57928 25.3223L3.62515 24.2797L2.5 15.2477L6.4556 12.6441Z" fill="white" stroke="black" stroke-width="0.8" stroke-miterlimit="10" stroke-linecap="round"/>
<path d="M6 15.3023L7.03724 15L11 15.2093L10.8404 17.7209L8.28723 17.6977L6.07979 18L6 15.3023Z" fill="white" stroke="black" stroke-width="0.8" stroke-miterlimit="10" stroke-linecap="round"/>
<path d="M17.9202 18L15.7128 17.6977L13.1596 17.7209L13 15.2093L16.9628 15L18 15.3023L17.9202 18Z" fill="white" stroke="black" stroke-width="0.8" stroke-miterlimit="10" stroke-linecap="round"/>
<path d="M8 16.5C8 16.2239 8.22386 16 8.5 16C8.77614 16 9 16.2239 9 16.5C9 16.7761 8.77614 17 8.5 17C8.22386 17 8 16.7761 8 16.5Z" fill="#050505"/>
<path d="M15 16.5C15 16.2239 15.2239 16 15.5 16C15.7761 16 16 16.2239 16 16.5C16 16.7761 15.7761 17 15.5 17C15.2239 17 15 16.7761 15 16.5Z" fill="#050505"/>
<path d="M11.2937 13.4388L5.67446 14.1602C5.67446 14.1602 3.3058 18.8453 2.9527 18.9888C2.35854 19.2304 2.43914 15.4757 2.43914 15.4757L2.26887 14.4997C2.26887 14.4997 1.09514 12.7067 3.65239 10.5746C6.20963 8.44242 9.57094 8.31778 10.1595 7.92078C10.2566 7.85524 12.0321 7 12.0321 7L10.8475 8.71077L14.8065 7.22558L16.1687 7.90452L14.9768 8.54103L14.7213 9.21997L18.2546 9.64431L19.5743 11.0446L18.4249 10.9598L19.7871 12.7844L20 14.015L17.9566 13.4634L15.8282 14.2272L11.2937 13.4388Z" fill="white" stroke="black" stroke-width="0.8" stroke-miterlimit="10" stroke-linecap="round"/>
<path d="M7.49425 14.9545L5.88506 15L5 14.3182L7.73563 14L12 14.4091L11.6782 14.9545H7.49425Z" fill="white" stroke="black" stroke-width="0.4" stroke-miterlimit="10" stroke-linecap="round"/>
<path d="M13.2778 15.6667L13 14.5833L15.2222 14L18 14.3333L17.9074 16L16.8889 15.4167L13.2778 15.6667Z" fill="white" stroke="black" stroke-width="0.4" stroke-miterlimit="10" stroke-linecap="round"/>
<path d="M10 22H13" stroke="black" stroke-width="0.8" stroke-miterlimit="10" stroke-linecap="round"/>
</svg>
